<?xml version="1.0" encoding="UTF-8" standalone="no"?>
<!-- Created with Inkscape (http://www.inkscape.org/) -->

<svg
   xmlns:dc="http://purl.org/dc/elements/1.1/"
   xmlns:cc="http://creativecommons.org/ns#"
   xmlns:rdf="http://www.w3.org/1999/02/22-rdf-syntax-ns#"
   xmlns:svg="http://www.w3.org/2000/svg"
   xmlns="http://www.w3.org/2000/svg"
   xmlns:sodipodi="http://sodipodi.sourceforge.net/DTD/sodipodi-0.dtd"
   xmlns:inkscape="http://www.inkscape.org/namespaces/inkscape"
   version="1.1"
   id="svg82102"
   xml:space="preserve"
   width="800"
   height="800"
   viewBox="0 0 800 800"
   sodipodi:docname="resume-cv-publicdomainvectors.org.svg"
   inkscape:version="0.92.4 (5da689c313, 2019-01-14)"><metadata
     id="metadata82108"><rdf:RDF><cc:Work
         rdf:about=""><dc:format>image/svg+xml</dc:format><dc:type
           rdf:resource="http://purl.org/dc/dcmitype/StillImage" /><dc:title></dc:title></cc:Work></rdf:RDF></metadata><defs
     id="defs82106"><clipPath
       clipPathUnits="userSpaceOnUse"
       id="clipPath82118"><path
         d="M 0,600 H 600 V 0 H 0 Z"
         id="path82116"
         inkscape:connector-curvature="0" /></clipPath></defs><sodipodi:namedview
     pagecolor="#ffffff"
     bordercolor="#666666"
     borderopacity="1"
     objecttolerance="10"
     gridtolerance="10"
     guidetolerance="10"
     inkscape:pageopacity="0"
     inkscape:pageshadow="2"
     inkscape:window-width="797"
     inkscape:window-height="480"
     id="namedview82104"
     showgrid="false"
     inkscape:zoom="0.295"
     inkscape:cx="400"
     inkscape:cy="400"
     inkscape:window-x="0"
     inkscape:window-y="0"
     inkscape:window-maximized="0"
     inkscape:current-layer="g82110" /><g
     id="g82110"
     inkscape:groupmode="layer"
     inkscape:label="resume-cv-publicdomainvectors.org"
     transform="matrix(1.3333333,0,0,-1.3333333,0,800)"><g
       id="g82112"><g
         id="g82114"
         clip-path="url(#clipPath82118)"><path
           d="m 0.094,-2.066 h 600.72 V 598.655 H 0.094 Z"
           style="fill:#ff9966;fill-opacity:1;fill-rule:evenodd;stroke:none"
           id="path82120"
           inkscape:connector-curvature="0" /><path
           d="M 445.809,400.526 585.471,349.692 484.079,71.118 276.54,146.655 278.072,150.863 121.797,93.987 20.406,372.561 224.951,447.009 v 72.863 h 220.858 z"
           style="fill:#eb8857;fill-opacity:1;fill-rule:evenodd;stroke:none"
           id="path82122"
           inkscape:connector-curvature="0" /><path
           d="M 15.438,378.161 222.977,453.699 324.369,175.124 116.833,99.587 Z"
           style="fill:#ffffff;fill-opacity:1;fill-rule:evenodd;stroke:none"
           id="path82124"
           inkscape:connector-curvature="0" /><path
           d="m 296.181,252.573 28.188,-77.449 -64.988,-23.653 z"
           style="fill:#e6e6e6;fill-opacity:1;fill-rule:evenodd;stroke:none"
           id="path82126"
           inkscape:connector-curvature="0" /><path
           d="m 209.474,448.786 13.503,4.913 85.376,-234.566 h -98.879 z"
           style="fill:#e6e6e6;fill-opacity:1;fill-rule:evenodd;stroke:none"
           id="path82128"
           inkscape:connector-curvature="0" /><path
           d="m 296.181,252.573 12.172,-33.44 h -24.345 z"
           style="fill:#d4d4d4;fill-opacity:1;fill-rule:evenodd;stroke:none"
           id="path82130"
           inkscape:connector-curvature="0" /><path
           d="M 53.655,291.862 119.121,315.69 90.209,395.122 24.745,371.294 Z"
           style="fill:#cccccc;fill-opacity:1;fill-rule:evenodd;stroke:none"
           id="path82132"
           inkscape:connector-curvature="0" /><path
           d="m 65.914,318.065 c -11.544,-7.53 -13.959,-16.534 -12.259,-26.203 21.822,7.943 43.644,15.886 65.466,23.828 -4.871,11.799 -13.788,14.928 -25.334,12.411 -9.291,-3.345 -18.581,-6.691 -27.873,-10.036"
           style="fill:#333333;fill-opacity:1;fill-rule:evenodd;stroke:none"
           id="path82134"
           inkscape:connector-curvature="0" /><path
           d="m 78.632,326.879 6.52,5.037 8.635,-3.815 -9.335,-16.66 -18.538,6.624 4.841,8.61 z"
           style="fill:#ffffff;fill-opacity:1;fill-rule:evenodd;stroke:none"
           id="path82136"
           inkscape:connector-curvature="0" /><path
           d="m 68.046,334.114 14.4,5.241 2.706,-7.439 -5.401,-7.564 -8.996,2.323 z"
           style="fill:#ffcc99;fill-opacity:1;fill-rule:evenodd;stroke:none"
           id="path82138"
           inkscape:connector-curvature="0" /><path
           d="m 62.959,370.488 c 8.482,3.088 17.128,0.73 20.949,-9.769 3.821,-10.496 0.95,-24.004 -7.532,-27.091 -8.482,-3.088 -19.12,4.741 -23.184,15.912 -4.066,11.17 1.285,17.861 9.767,20.948"
           style="fill:#ffcc99;fill-opacity:1;fill-rule:evenodd;stroke:none"
           id="path82140"
           inkscape:connector-curvature="0" /><path
           d="m 53.636,355.788 c 4.269,5.063 8.744,10.073 23.541,12.374 3.485,-3.225 5.988,-6.972 7.772,-11.106 0.708,6.144 -4.241,19.434 -17.548,22.44 1.565,-2.533 -9.853,-6.712 -14.274,-13.271 -4.83,-7.166 -2.578,-16.836 2.588,-21.927 -1.527,4.143 -2.924,8.238 -2.079,11.49"
           style="fill:#996633;fill-opacity:1;fill-rule:evenodd;stroke:none"
           id="path82142"
           inkscape:connector-curvature="0" /><path
           d="m 69.592,339.691 c 0.626,-2.197 2.475,-1.957 4.253,-1.124 1.781,0.211 3.547,1.349 2.743,3.481 -2.176,-1.308 -4.488,-2.159 -6.996,-2.357 m -11.827,1.662 c 3.265,-2.979 6.642,-5.667 10.876,-6.111 -0.044,1.669 -2.001,5.702 -0.817,6.877 2.115,2.098 5.406,3.528 8.363,3.152 1.95,-0.246 3.083,-4.983 4.283,-6.539 3.723,3.995 4.738,8.742 5.07,13.68 1.813,-6.565 -1.016,-17.164 -8.578,-20.174 -7.335,-2.922 -15.367,2.08 -19.197,9.115"
           style="fill:#8a5928;fill-opacity:1;fill-rule:evenodd;stroke:none"
           id="path82144"
           inkscape:connector-curvature="0" /><path
           d="m 77.142,318.129 1.777,4.072 3.022,1.261 4.97,-2.754 -4.119,1.163 -0.201,-3.334 3.411,-4.327 -1.398,-3.039 -4.508,1.827 1.051,5.177 -2.06,2.673 z"
           style="fill:#4d4d4d;fill-opacity:1;fill-rule:evenodd;stroke:none"
           id="path82146"
           inkscape:connector-curvature="0" /><path
           d="m 104.254,399.052 70.688,25.729 2.534,-6.966 -70.688,-25.728 z"
           style="fill:#666666;fill-opacity:1;fill-rule:evenodd;stroke:none"
           id="path82148"
           inkscape:connector-curvature="0" /><path
           d="m 72.188,272.625 70.689,25.729 2.534,-6.965 -70.688,-25.729 z"
           style="fill:#666666;fill-opacity:1;fill-rule:evenodd;stroke:none"
           id="path82150"
           inkscape:connector-curvature="0" /><path
           d="m 99.35,197.994 70.688,25.73 2.536,-6.964 -70.688,-25.73 z"
           style="fill:#666666;fill-opacity:1;fill-rule:evenodd;stroke:none"
           id="path82152"
           inkscape:connector-curvature="0" /><path
           d="m 104.165,184.762 0.762,-2.09 179.681,65.399 -0.761,2.09 z m 20.344,-55.889 71.559,26.045 0.762,-2.088 -71.562,-26.047 z m -1.85,5.082 c 0.255,-0.696 0.507,-1.394 0.762,-2.093 36.911,13.439 142.768,51.966 179.68,65.402 -0.252,0.696 -0.507,1.391 -0.759,2.088 C 265.43,185.918 159.57,147.389 122.659,133.955 m -1.847,5.08 c 0.252,-0.698 0.504,-1.394 0.761,-2.091 36.909,13.436 142.769,51.963 179.678,65.402 -0.252,0.695 -0.507,1.391 -0.759,2.088 -36.911,-13.436 -142.771,-51.963 -179.68,-65.399 m -1.85,5.079 c 0.253,-0.696 0.507,-1.391 0.759,-2.088 36.912,13.434 142.771,51.963 179.682,65.399 -0.254,0.696 -0.507,1.392 -0.761,2.091 -36.911,-13.437 -142.771,-51.966 -179.68,-65.402 m -1.849,5.082 c 0.252,-0.696 0.504,-1.391 0.759,-2.088 36.911,13.434 142.771,51.963 179.682,65.397 -0.255,0.695 -0.507,1.393 -0.762,2.09 C 259.881,201.159 154.021,162.63 117.113,149.196 m -1.85,5.082 c 0.252,-0.698 0.507,-1.394 0.761,-2.09 36.909,13.435 142.769,51.965 179.68,65.398 -0.254,0.696 -0.507,1.393 -0.761,2.088 -36.911,-13.433 -142.769,-51.963 -179.68,-65.396 m -1.849,5.079 c 0.254,-0.696 0.508,-1.391 0.761,-2.089 36.908,13.435 142.768,51.964 179.679,65.4 -0.254,0.696 -0.506,1.393 -0.758,2.088 -36.914,-13.433 -142.771,-51.963 -179.682,-65.399 m -1.85,5.082 c 0.254,-0.698 0.509,-1.394 0.761,-2.089 36.911,13.432 142.769,51.963 179.68,65.398 -0.252,0.695 -0.507,1.394 -0.761,2.09 -36.91,-13.436 -142.766,-51.965 -179.68,-65.399 m -1.85,5.08 c 0.255,-0.696 0.509,-1.392 0.762,-2.088 36.911,13.433 142.768,51.963 179.679,65.397 -0.252,0.697 -0.507,1.394 -0.759,2.091 -36.913,-13.438 -142.771,-51.965 -179.682,-65.4 m -1.85,5.082 c 0.255,-0.696 0.51,-1.392 0.762,-2.09 36.911,13.435 142.769,51.965 179.68,65.398 -0.253,0.697 -0.505,1.394 -0.76,2.09 -36.911,-13.436 -142.768,-51.965 -179.682,-65.398 m -30.86,84.792 0.759,-2.089 179.682,65.397 -0.761,2.09 z m 14.793,-40.648 c 0.254,-0.696 0.509,-1.392 0.761,-2.088 36.911,13.433 5.918,2.154 42.832,15.589 -0.255,0.695 -0.51,1.393 -0.762,2.089 -36.909,-13.435 -5.918,-2.154 -42.831,-15.59 m -1.85,5.081 c 0.257,-0.695 0.509,-1.391 0.761,-2.088 36.912,13.434 142.769,51.964 179.683,65.398 -0.255,0.696 -0.507,1.392 -0.762,2.09 -36.911,-13.435 -142.768,-51.965 -179.682,-65.4 m -1.849,5.08 c 0.254,-0.696 0.508,-1.391 0.761,-2.088 36.913,13.435 142.771,51.963 179.682,65.399 -0.252,0.696 -0.509,1.393 -0.761,2.089 -36.909,-13.436 -142.769,-51.964 -179.682,-65.4 m -1.848,5.083 c 0.255,-0.698 0.507,-1.394 0.759,-2.092 36.914,13.436 142.771,51.966 179.682,65.401 -0.252,0.695 -0.506,1.392 -0.761,2.089 C 229.021,285.952 123.162,247.423 86.25,233.989 m -1.85,5.079 c 0.255,-0.695 0.507,-1.391 0.76,-2.089 36.913,13.435 142.771,51.964 179.682,65.399 -0.253,0.697 -0.507,1.393 -0.761,2.089 C 227.171,291.033 121.312,252.503 84.4,239.068 m -1.849,5.081 c 0.255,-0.696 0.507,-1.391 0.762,-2.088 36.911,13.435 142.768,51.963 179.679,65.398 -0.252,0.697 -0.507,1.393 -0.759,2.089 C 225.322,296.113 119.462,257.585 82.551,244.149 m -1.847,5.082 c 0.252,-0.697 0.504,-1.393 0.758,-2.088 36.912,13.432 142.771,51.962 179.681,65.397 -0.253,0.697 -0.505,1.393 -0.76,2.089 C 223.472,301.194 117.612,262.666 80.704,249.231 m -1.85,5.08 c 36.909,13.435 142.769,51.965 179.68,65.399 0.254,-0.696 0.507,-1.393 0.759,-2.09 -36.909,-13.434 -142.769,-51.963 -179.68,-65.397 -0.255,0.696 -0.507,1.392 -0.759,2.088 m 30.215,131.508 0.76,-2.089 110.733,40.304 -0.759,2.089 z m 20.342,-55.89 71.559,26.047 0.759,-2.09 -71.557,-26.046 z m -1.849,5.081 c 36.913,13.434 73.822,26.87 110.735,40.303 0.253,-0.696 0.505,-1.392 0.76,-2.089 -36.912,-13.434 -73.823,-26.869 -110.734,-40.303 -0.253,0.697 -0.507,1.393 -0.761,2.089 m -1.85,5.081 c 0.254,-0.696 0.509,-1.392 0.761,-2.09 l 110.734,40.304 c -0.255,0.697 -0.507,1.393 -0.759,2.09 -36.914,-13.435 -73.823,-26.869 -110.736,-40.304 m -1.85,5.08 c 0.255,-0.696 0.509,-1.392 0.762,-2.089 36.913,13.436 73.822,26.869 110.733,40.305 -0.254,0.696 -0.507,1.392 -0.759,2.089 -36.913,-13.434 -73.823,-26.869 -110.736,-40.305 m -1.847,5.082 c 0.255,-0.697 0.506,-1.393 0.759,-2.089 36.914,13.435 73.822,26.869 110.736,40.303 -0.255,0.697 -0.51,1.393 -0.761,2.09 -36.914,-13.435 -73.823,-26.869 -110.734,-40.304 m -1.85,5.081 c 0.254,-0.696 0.507,-1.393 0.759,-2.089 36.914,13.434 73.823,26.869 110.736,40.303 -0.254,0.696 -0.509,1.393 -0.761,2.09 -36.912,-13.435 -73.823,-26.868 -110.734,-40.304 m -1.85,5.081 c 0.255,-0.696 0.507,-1.394 0.759,-2.089 36.914,13.434 73.823,26.868 110.737,40.303 -0.255,0.697 -0.51,1.393 -0.762,2.089 -36.911,-13.435 -73.822,-26.869 -110.734,-40.303 m -1.849,5.08 c 0.254,-0.696 0.507,-1.391 0.761,-2.089 36.911,13.435 73.82,26.869 110.734,40.305 -0.253,0.696 -0.507,1.392 -0.761,2.089 -36.912,-13.435 -73.823,-26.869 -110.734,-40.305 m -1.847,5.081 c 0.252,-0.696 0.506,-1.392 0.758,-2.089 36.912,13.435 73.823,26.869 110.734,40.305 -0.252,0.695 -0.507,1.392 -0.761,2.087 -36.912,-13.434 -73.823,-26.867 -110.731,-40.303 m -1.85,5.082 c 0.252,-0.698 0.504,-1.393 0.759,-2.089 36.911,13.434 73.822,26.869 110.734,40.303 -0.253,0.696 -0.507,1.392 -0.762,2.089 -36.909,-13.434 -73.822,-26.869 -110.731,-40.303 m -1.85,5.08 c 36.912,13.435 73.823,26.868 110.731,40.304 0.257,-0.697 0.51,-1.393 0.762,-2.089 -36.912,-13.436 -73.823,-26.869 -110.731,-40.305 -0.255,0.697 -0.51,1.394 -0.762,2.09 m -4.902,-201.055 c 36.911,13.433 142.769,51.963 179.68,65.397 0.255,-0.696 0.507,-1.393 0.761,-2.089 -36.913,-13.433 -142.77,-51.963 -179.682,-65.398 -0.252,0.695 -0.505,1.391 -0.759,2.09"
           style="fill:#cccccc;fill-opacity:1;fill-rule:evenodd;stroke:none"
           id="path82154"
           inkscape:connector-curvature="0" /><path
           d="m 209.474,419.997 v 2.365 l 10.329,3.761 0.759,-2.089 z m 0,-5.753 12.938,4.709 c -0.252,0.696 -0.505,1.392 -0.762,2.089 l -12.176,-4.433 z m 0,-5.755 v 2.366 l 14.026,5.106 c 0.255,-0.697 0.509,-1.393 0.762,-2.089 z m 0,-5.753 16.637,6.056 c -0.252,0.695 -0.507,1.392 -0.761,2.087 l -15.876,-5.778 z m 0,-5.755 v 2.366 L 227.2,405.8 c 0.254,-0.697 0.508,-1.393 0.761,-2.089 z m 0,-5.754 20.337,7.402 c -0.255,0.697 -0.51,1.393 -0.762,2.089 l -19.575,-7.125 z m 0,-5.753 v 2.365 l 21.425,7.799 c 0.252,-0.697 0.507,-1.394 0.761,-2.09 z m 0,-5.754 v 2.365 l 23.275,8.472 c 0.251,-0.697 0.506,-1.393 0.761,-2.09 z m 0,-5.754 25.883,9.421 c -0.254,0.696 -0.507,1.392 -0.759,2.089 l -25.124,-9.144 z m 0,-5.755 27.733,10.094 c -0.255,0.697 -0.507,1.393 -0.759,2.09 l -26.974,-9.817 z m 0,-5.753 v 2.366 l 28.823,10.489 c 0.253,-0.696 0.505,-1.392 0.76,-2.089 z m 0,-57.216 v 2.365 l 47.21,17.184 0.761,-2.09 z m 0,-5.754 v 2.366 l 49.06,17.856 c 0.254,-0.696 0.507,-1.393 0.759,-2.09 z m 0,-5.755 v 2.367 l 50.909,18.529 c 0.255,-0.696 0.507,-1.392 0.76,-2.089 z m 0,-5.753 53.518,19.479 c -0.252,0.697 -0.507,1.393 -0.759,2.089 l -52.759,-19.201 z m 0,-5.754 55.368,20.152 c -0.253,0.697 -0.507,1.393 -0.761,2.089 l -54.607,-19.875 z m 0,-5.754 57.217,20.826 c -0.252,0.695 -0.506,1.392 -0.761,2.089 l -56.456,-20.55 z m 0,-5.754 59.067,21.499 c -0.252,0.696 -0.509,1.393 -0.761,2.089 l -58.306,-21.222 z m 0,-5.753 v 2.366 l 60.155,21.895 c 0.255,-0.698 0.507,-1.394 0.762,-2.09 z m 0,-44.239 75.134,27.345 -0.761,2.09 -74.373,-27.07 z m 27.237,-1.593 51.595,18.776 c -0.253,0.697 -0.505,1.394 -0.76,2.09 l -57.334,-20.866 z m 15.809,0 37.635,13.695 c -0.252,0.697 -0.507,1.394 -0.759,2.091 l -43.375,-15.786 z m 15.811,0 23.674,8.615 c -0.252,0.695 -0.507,1.394 -0.761,2.09 l -29.415,-10.705 z m 15.806,0 9.717,3.535 c -0.254,0.696 -0.506,1.393 -0.758,2.088 l -15.456,-5.623 z m 11.005,0 h -1.696 l 1.497,0.541 z m -80.738,0 71.293,25.947 c 0.255,-0.696 0.507,-1.393 0.761,-2.089 l -65.555,-23.858 z"
           style="fill:#c2c2c2;fill-opacity:1;fill-rule:evenodd;stroke:none"
           id="path82156"
           inkscape:connector-curvature="0" /><path
           d="M 219.983,229.021 H 440.841 V 525.474 H 219.983 Z"
           style="fill:#ffffff;fill-opacity:1;fill-rule:evenodd;stroke:none"
           id="path82158"
           inkscape:connector-curvature="0" /><path
           d="M 440.841,418.581 V 229.019 H 287.607 l 78.848,216.635 z"
           style="fill:#e6e6e6;fill-opacity:1;fill-rule:evenodd;stroke:none"
           id="path82160"
           inkscape:connector-curvature="0" /><path
           d="m 310.586,507.315 h 75.226 v 7.411 h -75.226 z"
           style="fill:#ff6666;fill-opacity:1;fill-rule:evenodd;stroke:none"
           id="path82162"
           inkscape:connector-curvature="0" /><path
           d="m 237.214,399.48 h 75.224 v 7.412 h -75.224 z"
           style="fill:#ff6666;fill-opacity:1;fill-rule:evenodd;stroke:none"
           id="path82164"
           inkscape:connector-curvature="0" /><path
           d="m 237.214,320.06 h 75.226 v 7.412 h -75.226 z"
           style="fill:#ff6666;fill-opacity:1;fill-rule:evenodd;stroke:none"
           id="path82166"
           inkscape:connector-curvature="0" /><path
           d="m 237.214,313.389 h 191.212 v -2.224 H 237.214 Z m 0,-59.477 h 76.15 v -2.223 h -76.15 z m 0,5.408 h 191.212 v -2.225 H 237.214 Z m 0,5.406 h 191.212 v -2.222 H 237.214 Z m 0,5.407 H 428.426 V 267.91 H 237.214 Z m 0,5.408 h 191.212 v -2.224 H 237.214 Z m 0,5.406 h 191.212 v -2.224 H 237.214 Z m 0,5.407 h 191.212 v -2.223 H 237.214 Z m 0,5.408 h 191.212 v -2.224 H 237.214 Z m 0,5.406 h 191.212 v -2.224 H 237.214 Z m 0,5.406 h 191.212 v -2.223 H 237.214 Z m 73.372,198.07 h 117.84 v -2.224 h -117.84 z m 0,-59.476 h 76.152 v -2.225 h -76.152 z m 0,5.406 h 117.84 v -2.222 h -117.84 z m 0,5.407 h 117.84 v -2.223 h -117.84 z m 0,5.408 h 117.84 v -2.223 h -117.84 z m 0,5.406 h 117.84 v -2.223 h -117.84 z m 0,5.407 h 117.84 v -2.224 h -117.84 z m 0,5.408 h 117.84 v -2.225 h -117.84 z m 0,5.406 h 117.84 v -2.223 h -117.84 z m 0,5.407 h 117.84 v -2.224 h -117.84 z m 0,5.408 h 117.84 v -2.224 h -117.84 z m 0,5.406 h 117.84 v -2.223 H 310.586 Z M 237.214,392.809 h 191.212 v -2.223 H 237.214 Z m 0,-43.255 h 45.58 v -2.223 h -45.58 z m 0,5.406 h 191.212 v -2.223 H 237.214 Z m 0,5.408 h 191.212 v -2.223 H 237.214 Z m 0,5.406 H 428.426 V 363.55 H 237.214 Z m 0,5.408 h 191.212 v -2.224 H 237.214 Z m 0,5.406 h 191.212 v -2.223 H 237.214 Z m 0,5.407 h 191.212 v -2.224 H 237.214 Z m 0,5.407 h 191.212 v -2.224 H 237.214 Z m 0,-79.42 h 191.212 v -2.224 H 237.214 Z"
           style="fill:#cccccc;fill-opacity:1;fill-rule:evenodd;stroke:none"
           id="path82168"
           inkscape:connector-curvature="0" /><path
           d="m 346.413,390.586 0.808,2.223 h 81.205 v -2.223 z m -1.969,-5.408 0.811,2.224 h 83.171 v -2.224 z m -1.968,-5.407 0.81,2.224 h 85.14 v -2.224 z m -1.967,-5.406 0.808,2.223 h 87.109 v -2.223 z m -1.969,-5.407 0.811,2.224 h 89.075 v -2.224 z m -1.966,-5.407 0.808,2.223 h 91.044 v -2.223 z m -1.969,-5.406 0.808,2.223 h 93.013 v -2.223 z m -1.968,-5.408 0.81,2.223 h 94.979 v -2.223 z m -15.132,-41.572 0.81,2.224 h 110.111 v -2.224 z m -3.935,-10.814 0.808,2.223 h 114.048 v -2.223 z m -1.968,-5.407 0.81,2.224 h 116.014 v -2.224 z m -1.967,-5.406 0.808,2.224 h 117.983 v -2.224 z m -1.969,-5.407 0.809,2.223 h 119.951 v -2.223 z m -1.969,-5.407 0.811,2.223 h 121.918 v -2.223 z m -1.966,-5.407 0.808,2.224 h 123.887 v -2.224 z m -1.968,-5.407 0.809,2.223 h 125.854 v -2.223 z m -1.97,-5.406 0.811,2.222 h 127.822 v -2.222 z m -1.966,-5.408 0.808,2.224 h 129.791 v -2.224 z m -1.969,-5.407 0.811,2.223 h 16.695 v -2.223 z m 82.921,189.479 6.11,-2.224 h -20.874 l 0.808,2.224 z m -12.324,4.486 3.578,-1.302 h -4.052 z M 316.347,307.982 h 112.079 v -2.224 H 315.539 Z"
           style="fill:#c2c2c2;fill-opacity:1;fill-rule:evenodd;stroke:none"
           id="path82170"
           inkscape:connector-curvature="0" /><path
           d="M 372.965,430.831 580.503,355.293 479.111,76.719 271.572,152.256 Z"
           style="fill:#ffffff;fill-opacity:1;fill-rule:evenodd;stroke:none"
           id="path82172"
           inkscape:connector-curvature="0" /><path
           d="m 454.429,389.744 70.687,-25.728 -2.533,-6.964 -70.688,25.728 z"
           style="fill:#99cc33;fill-opacity:1;fill-rule:evenodd;stroke:none"
           id="path82174"
           inkscape:connector-curvature="0" /><path
           d="m 449.612,376.511 -0.76,-2.089 110.735,-40.304 0.76,2.089 z m -20.341,-55.888 71.56,-26.046 -0.762,-2.091 -71.559,26.048 z m 1.847,5.079 c 36.914,-13.434 73.825,-26.869 110.736,-40.304 -0.254,-0.695 -0.506,-1.392 -0.761,-2.088 -36.911,13.434 -73.822,26.87 -110.734,40.304 0.255,0.696 0.507,1.392 0.759,2.088 m 1.853,5.082 c -0.255,-0.696 -0.51,-1.393 -0.762,-2.09 36.911,-13.434 73.822,-26.869 110.734,-40.303 0.252,0.697 0.506,1.392 0.761,2.088 -36.913,13.436 -73.825,26.871 -110.733,40.305 m 1.846,5.081 c -0.252,-0.697 -0.506,-1.393 -0.758,-2.09 36.911,-13.435 73.822,-26.87 110.734,-40.304 0.252,0.697 0.506,1.394 0.759,2.091 -36.911,13.434 -73.823,26.868 -110.735,40.303 m 1.851,5.08 c -0.253,-0.695 -0.507,-1.392 -0.76,-2.089 36.909,-13.434 73.821,-26.87 110.735,-40.303 0.252,0.696 0.503,1.392 0.758,2.089 -36.911,13.434 -73.822,26.869 -110.733,40.303 m 1.85,5.081 c -0.255,-0.696 -0.507,-1.392 -0.762,-2.089 36.911,-13.435 73.822,-26.869 110.733,-40.303 0.255,0.696 0.507,1.393 0.762,2.089 -36.911,13.434 -73.822,26.869 -110.733,40.303 m 1.849,5.082 c -0.255,-0.697 -0.507,-1.393 -0.762,-2.09 36.912,-13.435 73.823,-26.869 110.734,-40.304 0.255,0.696 0.507,1.393 0.762,2.089 -36.912,13.435 -73.823,26.87 -110.734,40.305 m 1.85,5.08 c -0.255,-0.697 -0.507,-1.393 -0.762,-2.089 36.911,-13.434 73.822,-26.87 110.733,-40.304 0.255,0.696 0.507,1.392 0.762,2.089 -36.911,13.434 -73.822,26.87 -110.733,40.304 m 1.846,5.08 c -0.251,-0.696 -0.503,-1.392 -0.758,-2.088 36.911,-13.434 73.822,-26.868 110.733,-40.305 0.255,0.697 0.507,1.394 0.76,2.09 -36.909,13.434 -73.823,26.868 -110.735,40.303 m 1.853,5.082 c -0.255,-0.697 -0.51,-1.393 -0.762,-2.089 36.911,-13.434 73.823,-26.869 110.734,-40.304 0.253,0.696 0.507,1.393 0.759,2.088 -36.911,13.435 -73.823,26.871 -110.731,40.305 m 1.847,5.081 c 36.911,-13.435 73.823,-26.87 110.734,-40.305 -0.255,-0.696 -0.507,-1.392 -0.762,-2.089 -36.909,13.435 -73.82,26.869 -110.733,40.303 0.254,0.698 0.509,1.393 0.761,2.091"
           style="fill:#cccccc;fill-opacity:1;fill-rule:evenodd;stroke:none"
           id="path82176"
           inkscape:connector-curvature="0" /><path
           d="m 348.599,313.508 70.688,-25.73 -2.533,-6.964 -70.689,25.728 z"
           style="fill:#99cc33;fill-opacity:1;fill-rule:evenodd;stroke:none"
           id="path82178"
           inkscape:connector-curvature="0" /><path
           d="m 343.783,300.275 -0.761,-2.089 179.682,-65.398 0.762,2.089 z m -14.792,-40.648 c -0.255,-0.695 -0.51,-1.392 -0.762,-2.089 36.912,-13.434 5.92,-2.154 42.832,-15.589 0.252,0.697 0.506,1.394 0.759,2.089 -36.911,13.435 -5.921,2.155 -42.829,15.589 m 1.847,5.082 c -0.252,-0.697 -0.507,-1.393 -0.759,-2.09 36.909,-13.434 142.769,-51.964 179.68,-65.397 0.255,0.696 0.507,1.391 0.762,2.088 -36.912,13.435 -142.772,51.964 -179.683,65.399 m 1.85,5.081 c -0.254,-0.697 -0.507,-1.394 -0.759,-2.09 36.909,-13.434 142.768,-51.964 179.679,-65.396 0.253,0.695 0.507,1.391 0.759,2.088 -36.908,13.432 -142.768,51.963 -179.679,65.398 m 1.849,5.081 c -0.254,-0.697 -0.507,-1.394 -0.761,-2.091 36.912,-13.434 142.771,-51.964 179.682,-65.397 0.253,0.696 0.507,1.391 0.759,2.088 -36.908,13.435 -142.769,51.966 -179.68,65.4 m 1.85,5.08 c -0.254,-0.697 -0.507,-1.392 -0.761,-2.09 36.911,-13.434 142.77,-51.963 179.682,-65.398 0.253,0.695 0.506,1.391 0.758,2.09 -36.911,13.435 -142.767,51.964 -179.679,65.398 m 1.849,5.081 c -0.254,-0.697 -0.506,-1.393 -0.76,-2.089 36.911,-13.435 142.77,-51.965 179.681,-65.399 0.253,0.696 0.507,1.393 0.76,2.088 -36.912,13.435 -142.769,51.966 -179.681,65.4 m 1.85,5.08 c -0.254,-0.695 -0.506,-1.392 -0.761,-2.089 36.911,-13.434 142.769,-51.963 179.68,-65.397 0.255,0.696 0.507,1.393 0.762,2.088 -36.912,13.435 -142.769,51.966 -179.681,65.398 m 1.848,5.081 c 36.911,-13.434 142.771,-51.964 179.682,-65.397 -0.255,-0.696 -0.507,-1.395 -0.762,-2.09 -36.911,13.435 -142.768,51.964 -179.679,65.398 0.252,0.697 0.507,1.393 0.759,2.089"
           style="fill:#cccccc;fill-opacity:1;fill-rule:evenodd;stroke:none"
           id="path82180"
           inkscape:connector-curvature="0" /><path
           d="m 321.436,238.877 70.688,-25.728 -2.534,-6.964 -70.688,25.727 z"
           style="fill:#99cc33;fill-opacity:1;fill-rule:evenodd;stroke:none"
           id="path82182"
           inkscape:connector-curvature="0" /><path
           d="m 316.62,225.644 -0.762,-2.088 179.683,-65.402 0.762,2.091 z m -20.341,-55.889 -0.761,-2.09 71.559,-26.045 0.761,2.088 z m 1.849,5.079 c -0.254,-0.695 -0.506,-1.392 -0.761,-2.088 36.911,-13.435 142.771,-51.963 179.682,-65.398 0.253,0.696 0.507,1.391 0.76,2.09 -36.913,13.433 -142.769,51.963 -179.681,65.396 m 1.848,5.082 c -0.252,-0.696 -0.505,-1.392 -0.759,-2.088 36.911,-13.435 142.768,-51.965 179.679,-65.4 0.255,0.695 0.509,1.393 0.762,2.09 -36.912,13.435 -142.768,51.964 -179.682,65.398 m 1.852,5.082 c -0.255,-0.696 -0.51,-1.394 -0.762,-2.09 36.912,-13.435 142.769,-51.966 179.68,-65.399 0.255,0.696 0.509,1.392 0.762,2.091 -36.912,13.433 -142.769,51.963 -179.68,65.398 m 1.847,5.079 c -0.252,-0.695 -0.507,-1.391 -0.761,-2.09 36.913,-13.433 142.771,-51.963 179.682,-65.396 0.255,0.696 0.507,1.392 0.761,2.088 -36.911,13.435 -142.771,51.963 -179.682,65.398 m 1.849,5.082 c -0.253,-0.695 -0.506,-1.393 -0.76,-2.09 36.913,-13.433 142.77,-51.963 179.681,-65.398 0.252,0.698 0.507,1.393 0.762,2.09 -36.911,13.433 -142.771,51.963 -179.683,65.398 m 1.85,5.08 c -0.254,-0.696 -0.507,-1.392 -0.761,-2.088 36.911,-13.435 142.771,-51.963 179.682,-65.398 0.252,0.695 0.507,1.393 0.759,2.09 -36.908,13.433 -142.769,51.963 -179.68,65.396 m 1.85,5.081 c -0.254,-0.695 -0.507,-1.391 -0.761,-2.087 36.911,-13.438 142.77,-51.965 179.682,-65.401 0.251,0.696 0.506,1.395 0.758,2.09 -36.911,13.435 -142.768,51.963 -179.679,65.398 m 1.849,5.082 c -0.254,-0.695 -0.507,-1.393 -0.76,-2.089 36.911,-13.436 142.768,-51.966 179.679,-65.399 0.254,0.695 0.507,1.392 0.761,2.088 -36.911,13.436 -142.769,51.965 -179.68,65.4 m 1.85,5.08 c -0.254,-0.696 -0.507,-1.394 -0.761,-2.09 36.911,-13.433 142.769,-51.963 179.68,-65.396 0.254,0.695 0.507,1.392 0.761,2.088 -36.912,13.433 -142.771,51.963 -179.68,65.398 m 1.848,5.082 c 36.913,-13.436 142.77,-51.965 179.682,-65.399 -0.255,-0.695 -0.507,-1.394 -0.762,-2.09 -36.911,13.436 -142.768,51.966 -179.679,65.399 0.252,0.696 0.507,1.392 0.759,2.09"
           style="fill:#cccccc;fill-opacity:1;fill-rule:evenodd;stroke:none"
           id="path82184"
           inkscape:connector-curvature="0" /><path
           d="m 346.771,340.156 65.463,-23.828 28.912,79.433 -65.465,23.827 z"
           style="fill:#cccccc;fill-opacity:1;fill-rule:evenodd;stroke:none"
           id="path82186"
           inkscape:connector-curvature="0" /><path
           d="m 382.017,372.937 26.708,-9.721 -8.448,-23.212 -26.711,9.72 z"
           style="fill:#262626;fill-opacity:1;fill-rule:evenodd;stroke:none"
           id="path82188"
           inkscape:connector-curvature="0" /><path
           d="m 373.002,352.349 c -11.341,-1.396 -17.317,-4.896 -21.983,-13.74 21.822,-7.943 35.498,-12.921 57.32,-20.862 2.469,13.366 -1.076,16.812 -7.534,24.374 -9.267,3.41 -18.536,6.818 -27.803,10.228"
           style="fill:#996633;fill-opacity:1;fill-rule:evenodd;stroke:none"
           id="path82190"
           inkscape:connector-curvature="0" /><path
           d="m 384.952,363.272 14.398,-5.24 -2.706,-7.44 4.161,-8.471 -17.859,-6.762 -9.944,16.99 9.241,3.484 z"
           style="fill:#ffcc99;fill-opacity:1;fill-rule:evenodd;stroke:none"
           id="path82192"
           inkscape:connector-curvature="0" /><path
           d="m 384.952,363.272 14.398,-5.24 -1.694,-4.655 c -2.227,-0.494 -4.453,-0.436 -6.531,0.322 -3.155,1.148 -5.568,3.646 -7.145,6.904 z"
           style="fill:#ebb37b;fill-opacity:1;fill-rule:evenodd;stroke:none"
           id="path82194"
           inkscape:connector-curvature="0" /><path
           d="m 404.437,394.406 c 8.482,-3.087 13.589,-10.45 9.768,-20.948 -3.82,-10.498 -14.703,-19 -23.184,-15.911 -8.484,3.086 -11.599,15.921 -7.534,27.09 4.067,11.171 12.467,12.856 20.95,9.769"
           style="fill:#ffcc99;fill-opacity:1;fill-rule:evenodd;stroke:none"
           id="path82196"
           inkscape:connector-curvature="0" /><path
           d="m 394.457,397.482 c -1.878,0.795 -2.19,1.05 -4.045,0.172 -14.416,-11.891 -13.12,-35.677 -18.209,-51.126 9.562,11.393 14.013,43.439 21.925,45.362 4.129,-5.353 8.55,-8.943 16.866,-12.344 -4.085,-14.155 -12.39,-29.992 -10.425,-43.241 2.562,15.677 17.404,32.3 17.063,46.329 -0.554,16.383 -18.373,19.05 -23.175,14.848"
           style="fill:#000000;fill-opacity:1;fill-rule:evenodd;stroke:none"
           id="path82198"
           inkscape:connector-curvature="0" /><path
           d="m 226.377,431.306 h 69.667 v 84.53 h -69.667 z"
           style="fill:#cccccc;fill-opacity:1;fill-rule:evenodd;stroke:none"
           id="path82200"
           inkscape:connector-curvature="0" /><path
           d="m 246.859,451.736 c -13.424,-3.128 -18.772,-10.762 -20.479,-20.43 h 69.665 c -0.542,12.754 -7.849,18.743 -19.561,20.329 -9.875,0.032 -19.751,0.067 -29.625,0.101"
           style="fill:#996633;fill-opacity:1;fill-rule:evenodd;stroke:none"
           id="path82202"
           inkscape:connector-curvature="0" /><path
           d="m 261.824,455.669 7.852,2.502 6.808,-6.536 -14.47,-12.463 -15.155,12.564 7.492,6.435 z"
           style="fill:#ffffff;fill-opacity:1;fill-rule:evenodd;stroke:none"
           id="path82204"
           inkscape:connector-curvature="0" /><path
           d="m 254.351,466.088 h 15.325 v -7.917 l -7.662,-5.26 -7.663,5.26 z"
           style="fill:#ffcc99;fill-opacity:1;fill-rule:evenodd;stroke:none"
           id="path82206"
           inkscape:connector-curvature="0" /><path
           d="m 254.351,466.088 h 15.325 v -4.953 c -1.925,-1.228 -4.035,-1.932 -6.25,-1.932 -3.358,0 -6.478,1.521 -9.075,4.043 z"
           style="fill:#ebb37b;fill-opacity:1;fill-rule:evenodd;stroke:none"
           id="path82208"
           inkscape:connector-curvature="0" /><path
           d="m 262.014,502.008 c 9.026,0 16.345,-5.173 16.345,-16.344 0,-11.173 -7.319,-22.882 -16.345,-22.882 -9.027,0 -16.344,10.996 -16.344,22.882 0,11.887 7.317,16.344 16.344,16.344"
           style="fill:#ffcc99;fill-opacity:1;fill-rule:evenodd;stroke:none"
           id="path82210"
           inkscape:connector-curvature="0" /><path
           d="m 248.223,491.385 c 8.312,-1.837 16.171,-2.545 26.355,3.575 2.17,-4.222 3.244,-8.6 3.505,-13.096 4.162,32.318 -39.267,28.542 -31.836,-1.989 -0.016,4.415 0.07,8.742 1.976,11.51"
           style="fill:#000000;fill-opacity:1;fill-rule:evenodd;stroke:none"
           id="path82212"
           inkscape:connector-curvature="0" /><path
           d="m 257.434,447.957 3.064,3.218 3.27,0.151 3.727,-4.288 -3.475,2.502 -1.327,-3.064 1.728,-5.233 -2.356,-2.378 -3.611,3.259 2.758,4.505 -1.023,3.218 z"
           style="fill:#336699;fill-opacity:1;fill-rule:evenodd;stroke:none"
           id="path82214"
           inkscape:connector-curvature="0" /></g></g></g></svg>